# xmcd
#
# Track frame offsets:
#	150
#	15792
#	28108
#	36598
#	49247
#	61640
#	73733
#	87411
#	99801
#	111618
#
# Disc length: 1636 seconds
# Revision: 0
# Processed by: cddbd v1.5.2PL0 Copyright (c) Steve Scherf et al.
# Submitted via: dBpowerAMP V12.0
#
DISCID=7f06620a
DTITLE=Norm Whitton - Requests
DYEAR=2015
DGENRE=Country
TTITLE0=Lucille
TTITLE1=In the Ghetto
TTITLE2=Kiss an Angel Good Morning
TTITLE3=Man in Black
TTITLE4=I'll Have to Say I Love You
TTITLE5=Moody River
TTITLE6=Good Hearted Woman
TTITLE7=Mercury Blues
TTITLE8=Guitars and Cadilacs
TTITLE9=Hot Rod Race
EXTD=
EXTT0=
EXTT1=
EXTT2=
EXTT3=
EXTT4=
EXTT5=
EXTT6=
EXTT7=
EXTT8=
EXTT9=
PLAYORDER=
